<?xml version="1.0" standalone="no"?><!DOCTYPE svg PUBLIC "-//W3C//DTD SVG 1.1//EN" "http://www.w3.org/Graphics/SVG/1.1/DTD/svg11.dtd"><svg width="100%" height="100%" viewBox="0 0 102 127" version="1.1" xmlns="http://www.w3.org/2000/svg" xmlns:xlink="http://www.w3.org/1999/xlink" xml:space="preserve" style="fill-rule:evenodd;clip-rule:evenodd;stroke-linejoin:round;stroke-miterlimit:1.41421;"><g><path d="M50.9609,21.6055c-20.2356,0 -43.7982,10.02 -43.7982,30.099c0,34.5219 25.5979,64.3469 43.7982,76.2456c18.3177,-11.8204 43.7982,-41.7237 43.7982,-76.2456c0,-20.0399 -23.5625,-30.099 -43.7982,-30.099Z" style="fill:#000;fill-rule:nonzero;"/><path d="M102,51c0,28.1811 -22.8189,49.043 -51,49.043c-28.1811,0 -51,-20.8619 -51,-49.043c0,-28.1811 22.8189,-51 51,-51c28.1811,0 51,22.8189 51,51Z" style="fill:#000;fill-rule:nonzero;"/><path d="M94.0153,51c0,23.7583 -19.2571,43.0153 -43.0153,43.0153c-23.7583,0 -43.0153,-19.2571 -43.0153,-43.0153c0,-23.7583 19.2571,-43.0153 43.0153,-43.0153c23.7583,0.0391404 43.0153,19.2571 43.0153,43.0153Z" style="fill:#fff;fill-rule:nonzero;"/><path d="M89.5925,78.7897c0.0391404,-0.273983 0.0782809,-0.547966 0.0782809,-0.821949l-0.117421,0c-1.13507,-17.0652 -19.8442,-20.4313 -38.5533,-20.4313c-18.7483,0 -37.4183,3.36608 -38.5925,20.4313l-0.117421,0c0,0.273983 0.0391404,0.547966 0.0391404,0.821949c0,0.273983 -0.0391404,0.547966 -0.0391404,0.821949l0.117421,0c1.17421,17.0652 40.5104,18.4351 38.5925,18.4351c-1.91788,0 37.4183,-1.36992 38.5533,-18.4351l0.117421,0c-0.0391404,-0.273983 -0.0782809,-0.547966 -0.0782809,-0.821949Z" style="fill:#000;fill-rule:nonzero;"/><path d="M0,51c0,38.7099 20.7053,57.3016 20.7053,57.3016c0.0391404,-0.0782809 9.08058,-9.27629 9.70683,-30.8035c0.626247,-19.7659 -30.4121,-26.4981 -30.4121,-26.4981Z" style="fill:#000;fill-rule:nonzero;"/><path d="M102,51c0,38.7099 -20.5487,57.3016 -20.5487,57.3016c-0.0391404,-0.0782809 -9.08058,-9.27629 -9.70683,-30.8035c-0.587107,-19.7659 30.2556,-26.4981 30.2556,-26.4981Z" style="fill:#000;fill-rule:nonzero;"/><path d="M29.2379,45.9117c0,3.79662 -3.0921,6.84958 -6.88872,6.84958c-3.79662,0 -6.88872,-3.0921 -6.88872,-6.84958c0,-3.79662 3.0921,-6.88872 6.88872,-6.88872c3.79662,0.0391404 6.88872,3.0921 6.88872,6.88872Z" style="fill:#000;fill-rule:nonzero;"/><path d="M41.4889,2.85725l-2.34843,24.6193l6.49731,0l-2.38757,16.8304l19.5311,-20.7444l-8.02379,0l9.78511,-20.7053l-23.0537,0Z" style="fill:#000;fill-rule:nonzero;"/><path d="M50.9609,69.0437c-11.5856,0 -17.9655,-0.743668 -17.9655,-0.743668c0,7.78895 7.39754,12.4858 17.848,12.4858c10.7245,0 18.0829,-4.85342 18.0829,-12.4858c0.0391404,0 -6.37989,0.743668 -17.9655,0.743668Z" style="fill:#fff;fill-rule:nonzero;"/></g><path d="M70.9225,50.2563c-0.391404,0 -0.782809,-0.0782809 -1.13507,-0.273983c-0.704528,-0.391404 -1.17421,-1.13507 -1.21335,-1.95702c0,-0.234843 -0.156562,-5.67536 5.63622,-8.53262c1.17421,-0.587107 2.58327,-0.0782809 3.13124,1.05679c0.587107,1.17421 0.0782809,2.58327 -1.05679,3.13124c-0.156562,0.0782809 -0.313124,0.156562 -0.430545,0.234843c2.70069,-0.352264 6.06677,-0.0782809 9.47199,1.8396c1.13507,0.626247 1.52648,2.07444 0.90023,3.20952c-0.626247,1.13507 -2.07444,1.52648 -3.20952,0.90023c-5.36224,-3.01381 -10.6853,-0.0391404 -10.9202,0.117421c-0.352264,0.156562 -0.782809,0.273983 -1.17421,0.273983Z" style="fill:#000;fill-rule:nonzero;"/></svg>