<?xml version="1.0" encoding="utf-8"?>
<!-- Generator: Adobe Illustrator 18.1.1, SVG Export Plug-In . SVG Version: 6.00 Build 0)  -->
<!DOCTYPE svg PUBLIC "-//W3C//DTD SVG 1.1//EN" "http://www.w3.org/Graphics/SVG/1.1/DTD/svg11.dtd">
<svg version="1.1" id="Layer_1" xmlns="http://www.w3.org/2000/svg" xmlns:xlink="http://www.w3.org/1999/xlink" x="0px" y="0px"
	 width="260.6px" height="326.9px" viewBox="0 0 260.6 326.9" enable-background="new 0 0 260.6 326.9" xml:space="preserve">
<g>
	<path d="M130.2,55.2c-51.7,0-111.9,25.6-111.9,76.9c0,88.2,65.4,164.4,111.9,194.8c46.8-30.2,111.9-106.6,111.9-194.8
		C242.1,80.9,181.9,55.2,130.2,55.2z"/>
	<path d="M260.6,130.3c0,72-58.3,125.3-130.3,125.3C58.3,255.6,0,202.3,0,130.3C0,58.3,58.3,0,130.3,0
		C202.3,0,260.6,58.3,260.6,130.3z"/>
	<path fill="#FFFFFF" d="M240.2,130.3c0,60.7-49.2,109.9-109.9,109.9c-60.7,0-109.9-49.2-109.9-109.9c0-60.7,49.2-109.9,109.9-109.9
		C191,20.5,240.2,69.6,240.2,130.3z"/>
	<path d="M228.9,201.3c0.1-0.7,0.2-1.4,0.2-2.1h-0.3c-2.9-43.6-50.7-52.2-98.5-52.2c-47.9,0-95.6,8.6-98.6,52.2h-0.3
		c0,0.7,0.1,1.4,0.1,2.1c0,0.7-0.1,1.4-0.1,2.1h0.3c3,43.6,103.5,47.1,98.6,47.1c-4.9,0,95.6-3.5,98.5-47.1h0.3
		C229,202.7,228.9,202,228.9,201.3z"/>
	<path d="M0,130.3c0,98.9,52.9,146.4,52.9,146.4c0.1-0.2,23.2-23.7,24.8-78.7C79.3,147.5,0,130.3,0,130.3z"/>
	<path d="M260.6,130.3c0,98.9-52.5,146.4-52.5,146.4c-0.1-0.2-23.2-23.7-24.8-78.7C181.8,147.5,260.6,130.3,260.6,130.3z"/>
	<path d="M74.7,117.3c0,9.7-7.9,17.5-17.6,17.5c-9.7,0-17.6-7.9-17.6-17.5c0-9.7,7.9-17.6,17.6-17.6
		C66.8,99.8,74.7,107.6,74.7,117.3z"/>
	<polygon points="106,7.3 100,70.2 116.6,70.2 110.5,113.2 160.4,60.2 139.9,60.2 164.9,7.3 	"/>
	<path fill="#FFFFFF" d="M130.2,176.4c-29.6,0-45.9-1.9-45.9-1.9c0,19.9,18.9,31.9,45.6,31.9c27.4,0,46.2-12.4,46.2-31.9
		C176.2,174.5,159.8,176.4,130.2,176.4z"/>
</g>
<g>
	<path d="M181.2,128.4c-1,0-2-0.2-2.9-0.7c-1.8-1-3-2.9-3.1-5c0-0.6-0.4-14.5,14.4-21.8c3-1.5,6.6-0.2,8,2.7c1.5,3,0.2,6.6-2.7,8
		c-0.4,0.2-0.8,0.4-1.1,0.6c6.9-0.9,15.5-0.2,24.2,4.7c2.9,1.6,3.9,5.3,2.3,8.2c-1.6,2.9-5.3,3.9-8.2,2.3
		c-13.7-7.7-27.3-0.1-27.9,0.3C183.3,128.1,182.2,128.4,181.2,128.4z"/>
</g>
</svg>
