<?xml version="1.0" encoding="utf-8"?><!DOCTYPE svg PUBLIC "-//W3C//DTD SVG 1.1//EN" "http://www.w3.org/Graphics/SVG/1.1/DTD/svg11.dtd"><svg width="522" height="327" viewBox="0 0 522 327" xmlns="http://www.w3.org/2000/svg" xmlns:xlink="http://www.w3.org/1999/xlink"><svg width="260.6" height="326.9" viewBox="0 0 260.6 326.9" id="baardbaard_logo"><path d="M130.2 55.2c-51.7 0-111.9 25.6-111.9 76.9 0 88.2 65.4 164.4 111.9 194.8 46.8-30.2 111.9-106.6 111.9-194.8 0-51.2-60.2-76.9-111.9-76.9zM260.6 130.3c0 72-58.3 125.3-130.3 125.3C58.3 255.6 0 202.3 0 130.3S58.3 0 130.3 0c72 0 130.3 58.3 130.3 130.3z"/><path fill="#fff" d="M240.2 130.3c0 60.7-49.2 109.9-109.9 109.9S20.4 191 20.4 130.3 69.6 20.4 130.3 20.4c60.7.1 109.9 49.2 109.9 109.9z"/><path d="M228.9 201.3c.1-.7.2-1.4.2-2.1h-.3c-2.9-43.6-50.7-52.2-98.5-52.2-47.9 0-95.6 8.6-98.6 52.2h-.3c0 .7.1 1.4.1 2.1 0 .7-.1 1.4-.1 2.1h.3c3 43.6 103.5 47.1 98.6 47.1-4.9 0 95.6-3.5 98.5-47.1h.3c-.1-.7-.2-1.4-.2-2.1zM0 130.3c0 98.9 52.9 146.4 52.9 146.4.1-.2 23.2-23.7 24.8-78.7C79.3 147.5 0 130.3 0 130.3zM260.6 130.3c0 98.9-52.5 146.4-52.5 146.4-.1-.2-23.2-23.7-24.8-78.7-1.5-50.5 77.3-67.7 77.3-67.7zM74.7 117.3c0 9.7-7.9 17.5-17.6 17.5-9.7 0-17.6-7.9-17.6-17.5 0-9.7 7.9-17.6 17.6-17.6 9.7.1 17.6 7.9 17.6 17.6zM220.9 117.3c0 9.7-7.9 17.5-17.6 17.5-9.7 0-17.5-7.9-17.5-17.5 0-9.7 7.8-17.6 17.5-17.6 9.7.1 17.6 7.9 17.6 17.6zM106 7.3l-6 62.9h16.6l-6.1 43 49.9-53h-20.5l25-52.9z"/><path fill="#fff" d="M130.2 176.4c-29.6 0-45.9-1.9-45.9-1.9 0 19.9 18.9 31.9 45.6 31.9 27.4 0 46.2-12.4 46.2-31.9.1 0-16.3 1.9-45.9 1.9z"/></svg><svg width="260.6" height="326.9" viewBox="0 0 260.6 326.9" id="baardbaard_logo_knipoog" x="260.6"><path d="M130.2 55.2c-51.7 0-111.9 25.6-111.9 76.9 0 88.2 65.4 164.4 111.9 194.8 46.8-30.2 111.9-106.6 111.9-194.8 0-51.2-60.2-76.9-111.9-76.9zM260.6 130.3c0 72-58.3 125.3-130.3 125.3C58.3 255.6 0 202.3 0 130.3S58.3 0 130.3 0c72 0 130.3 58.3 130.3 130.3z"/><path fill="#fff" d="M240.2 130.3c0 60.7-49.2 109.9-109.9 109.9S20.4 191 20.4 130.3 69.6 20.4 130.3 20.4c60.7.1 109.9 49.2 109.9 109.9z"/><path d="M228.9 201.3c.1-.7.2-1.4.2-2.1h-.3c-2.9-43.6-50.7-52.2-98.5-52.2-47.9 0-95.6 8.6-98.6 52.2h-.3c0 .7.1 1.4.1 2.1 0 .7-.1 1.4-.1 2.1h.3c3 43.6 103.5 47.1 98.6 47.1-4.9 0 95.6-3.5 98.5-47.1h.3c-.1-.7-.2-1.4-.2-2.1zM0 130.3c0 98.9 52.9 146.4 52.9 146.4.1-.2 23.2-23.7 24.8-78.7C79.3 147.5 0 130.3 0 130.3zM260.6 130.3c0 98.9-52.5 146.4-52.5 146.4-.1-.2-23.2-23.7-24.8-78.7-1.5-50.5 77.3-67.7 77.3-67.7zM74.7 117.3c0 9.7-7.9 17.5-17.6 17.5-9.7 0-17.6-7.9-17.6-17.5 0-9.7 7.9-17.6 17.6-17.6 9.7.1 17.6 7.9 17.6 17.6zM106 7.3l-6 62.9h16.6l-6.1 43 49.9-53h-20.5l25-52.9z"/><path fill="#fff" d="M130.2 176.4c-29.6 0-45.9-1.9-45.9-1.9 0 19.9 18.9 31.9 45.6 31.9 27.4 0 46.2-12.4 46.2-31.9.1 0-16.3 1.9-45.9 1.9z"/><path d="M181.2 128.4c-1 0-2-.2-2.9-.7-1.8-1-3-2.9-3.1-5 0-.6-.4-14.5 14.4-21.8 3-1.5 6.6-.2 8 2.7 1.5 3 .2 6.6-2.7 8-.4.2-.8.4-1.1.6 6.9-.9 15.5-.2 24.2 4.7 2.9 1.6 3.9 5.3 2.3 8.2-1.6 2.9-5.3 3.9-8.2 2.3-13.7-7.7-27.3-.1-27.9.3-.9.4-2 .7-3 .7z"/></svg></svg>