<?xml version="1.0" standalone="no"?><!DOCTYPE svg PUBLIC "-//W3C//DTD SVG 1.1//EN" "http://www.w3.org/Graphics/SVG/1.1/DTD/svg11.dtd"><svg width="204" height="127" viewBox="0 0 204 127" xmlns="http://www.w3.org/2000/svg" xmlns:xlink="http://www.w3.org/1999/xlink"><svg viewBox="0 0 102 127" fill-rule="evenodd" clip-rule="evenodd" stroke-linejoin="round" stroke-miterlimit="1.414" width="102" height="127" id="baardbaard_logo"><path d="M50.96 21.605c-20.235 0-43.797 10.02-43.797 30.1 0 34.52 25.598 64.346 43.798 76.245 18.32-11.82 43.8-41.724 43.8-76.246 0-20.04-23.563-30.1-43.8-30.1zM102 51c0 28.18-22.82 49.043-51 49.043S0 79.18 0 51C0 22.82 22.82 0 51 0s51 22.82 51 51z"/><path d="M94.015 51c0 23.758-19.257 43.015-43.015 43.015S7.985 74.758 7.985 51 27.242 7.985 51 7.985C74.758 8.025 94.015 27.242 94.015 51z" fill="#fff"/><path d="M89.593 78.79c.04-.274.078-.548.078-.822h-.117C88.418 60.903 69.71 57.536 51 57.536c-18.748 0-37.418 3.367-38.592 20.432h-.118c0 .274.04.548.04.822 0 .274-.04.548-.04.822h.118C13.582 96.677 52.918 98.047 51 98.047c-1.918 0 37.418-1.37 38.553-18.435h.118c-.038-.274-.078-.548-.078-.822zM0 51c0 38.71 20.705 57.302 20.705 57.302.04-.08 9.08-9.277 9.707-30.804C31.038 57.732 0 51 0 51zM102 51c0 38.71-20.55 57.302-20.55 57.302-.038-.08-9.08-9.277-9.706-30.804C71.157 57.732 102 51 102 51zM29.238 45.912c0 3.796-3.092 6.85-6.89 6.85-3.795 0-6.888-3.093-6.888-6.85 0-3.797 3.093-6.89 6.89-6.89 3.796.04 6.888 3.093 6.888 6.89zM86.46 45.912c0 3.796-3.09 6.85-6.888 6.85-3.796 0-6.85-3.093-6.85-6.85 0-3.797 3.054-6.89 6.85-6.89 3.797.04 6.89 3.093 6.89 6.89zM41.49 2.857l-2.35 24.62h6.498l-2.388 16.83 19.53-20.744H54.76l9.785-20.706H41.49z"/><path d="M50.96 69.044c-11.585 0-17.965-.744-17.965-.744 0 7.79 7.398 12.486 17.848 12.486 10.725 0 18.083-4.854 18.083-12.486.04 0-6.38.744-17.965.744z" fill="#fff"/></svg><svg viewBox="0 0 102 127" fill-rule="evenodd" clip-rule="evenodd" stroke-linejoin="round" stroke-miterlimit="1.414" width="102" height="127" id="baardbaard_logo_knipoog" x="102"><path d="M50.96 21.605c-20.235 0-43.797 10.02-43.797 30.1 0 34.52 25.598 64.346 43.798 76.245 18.32-11.82 43.8-41.724 43.8-76.246 0-20.04-23.563-30.1-43.8-30.1zM102 51c0 28.18-22.82 49.043-51 49.043S0 79.18 0 51C0 22.82 22.82 0 51 0s51 22.82 51 51z"/><path d="M94.015 51c0 23.758-19.257 43.015-43.015 43.015S7.985 74.758 7.985 51 27.242 7.985 51 7.985C74.758 8.025 94.015 27.242 94.015 51z" fill="#fff"/><path d="M89.593 78.79c.04-.274.078-.548.078-.822h-.117C88.418 60.903 69.71 57.536 51 57.536c-18.748 0-37.418 3.367-38.592 20.432h-.118c0 .274.04.548.04.822 0 .274-.04.548-.04.822h.118C13.582 96.677 52.918 98.047 51 98.047c-1.918 0 37.418-1.37 38.553-18.435h.118c-.038-.274-.078-.548-.078-.822zM0 51c0 38.71 20.705 57.302 20.705 57.302.04-.08 9.08-9.277 9.707-30.804C31.038 57.732 0 51 0 51zM102 51c0 38.71-20.55 57.302-20.55 57.302-.038-.08-9.08-9.277-9.706-30.804C71.157 57.732 102 51 102 51zM29.238 45.912c0 3.796-3.092 6.85-6.89 6.85-3.795 0-6.888-3.093-6.888-6.85 0-3.797 3.093-6.89 6.89-6.89 3.796.04 6.888 3.093 6.888 6.89zM41.49 2.857l-2.35 24.62h6.498l-2.388 16.83 19.53-20.744H54.76l9.785-20.706H41.49z"/><path d="M50.96 69.044c-11.585 0-17.965-.744-17.965-.744 0 7.79 7.398 12.486 17.848 12.486 10.725 0 18.083-4.854 18.083-12.486.04 0-6.38.744-17.965.744z" fill="#fff"/><path d="M70.922 50.256c-.39 0-.782-.078-1.135-.274-.704-.39-1.174-1.135-1.213-1.957 0-.235-.156-5.675 5.636-8.532 1.175-.587 2.584-.08 3.132 1.056.587 1.174.078 2.583-1.057 3.13-.157.08-.313.157-.43.236 2.7-.353 6.066-.08 9.47 1.84 1.136.625 1.528 2.074.9 3.21-.625 1.134-2.073 1.525-3.208.9-5.362-3.015-10.685-.04-10.92.116-.353.157-.783.274-1.175.274z"/></svg></svg>